<mxfile host="app.diagrams.net" modified="2020-08-06T02:45:59.923Z" agent="5.0 (Windows NT 10.0; Win64; x64) AppleWebKit/537.36 (KHTML, like Gecko) Chrome/81.0.4044.138 Safari/537.36" etag="pefLzMVwxYQyZsHzWmM7" version="13.6.0" type="github">
  <diagram id="ISz6apiqJRanIGy9Ss5K" name="Page-1">
    <mxGraphModel dx="942" dy="592" grid="1" gridSize="10" guides="1" tooltips="1" connect="1" arrows="1" fold="1" page="1" pageScale="1" pageWidth="827" pageHeight="1169" math="0" shadow="0">
      <root>
        <mxCell id="0" />
        <mxCell id="1" parent="0" />
        <mxCell id="eCKlghGoDv0b4a2D_gio-1" value="订单系统" style="rounded=0;whiteSpace=wrap;html=1;" vertex="1" parent="1">
          <mxGeometry x="160" y="180" width="120" height="60" as="geometry" />
        </mxCell>
      </root>
    </mxGraphModel>
  </diagram>
</mxfile>
